<svg xmlns:svg="http://www.w3.org/2000/svg" xmlns="http://www.w3.org/2000/svg" width="100.91851mm"  height="52.369965mm"  viewBox="0 0 100.91851 52.369965" >
<path id="mpi_logo" style="clip-rule:evenodd;fill:#029c8c;fill-opacity:1;fill-rule:evenodd;stroke:none;stroke-width:0.264584"
 d="m 50.459371,7.2964073 c -10.41636,0 -18.89108,8.4725197 -18.89108,18.8885697 0,10.41625 8.47472,18.88858 18.89108,18.88858 10.41597,0 18.89084,-8.47233 18.89084,-18.88858 0,-10.41605 -8.47487,-18.8885697 -18.89084,-18.8885697 z m 0,0.52721 c 10.12363,0 18.36067,8.2376497 18.36067,18.3613597 0,10.12611 -8.23704,18.36159 -18.36067,18.36159 -10.12622,0 -18.36409,-8.23548 -18.36409,-18.36159 0,-10.12371 8.23787,-18.3613597 18.36409,-18.3613597 z m 0,1.75981 c -9.15645,0 -16.60179,7.4475097 -16.60179,16.6015497 0,5.65854 3.0603,11.10008 7.98843,14.20706 l 0.2052,0.1268 0.14726,-0.19157 c 0.0412,-0.0533 0.0577,-0.10546 0.0577,-0.15203 0,-0.12212 -0.10362,-0.21654 -0.16157,-0.27133 l -0.2852,-0.27406 c -1.01806,-1.15376 -1.28985,-2.24798 -1.28985,-3.08875 0,-0.93027 0.33414,-1.55166 0.36178,-1.59823 l 0.008,-0.0157 0.3886,-0.5863 c 0.16651,0.16278 0.33591,0.32794 0.5263,0.50131 0.46504,0.25045 0.84064,0.70194 1.17419,1.00852 0.40336,0.46925 0.50009,0.9692 0.4145,1.52642 -0.0524,0.65908 -0.65621,0.94429 -1.06579,1.3794 -0.16793,0.31308 -0.2718,0.68861 -0.0436,0.97875 0.14726,0.38969 0.77115,0.32018 0.84717,0.64016 0.17261,0.70516 1.39553,1.11254 1.63528,1.12851 0.23706,0.0165 0.48358,0.28133 0.48358,0.28133 0.48579,0.35468 1.12357,0.26693 1.45961,0.21634 0.33422,-0.0508 0.93309,0.22099 1.31053,0.16543 0.55953,-0.22348 1.02076,-0.11964 1.60323,-0.16793 1.83292,0.0275 3.91513,-0.0135 5.78936,0.22361 0.3478,-0.0412 0.76214,0.22809 1.08919,0.0623 0.0849,-0.14077 0.0208,-0.25827 0,-0.37542 -0.89594,-1.40956 -1.02904,-2.99129 -0.52039,-4.52517 l 0.33587,0.0182 c 1.21859,0.13359 2.32409,-0.0255 3.55846,-0.73947 0.61681,-0.34091 0.94182,-1.13495 0.91399,-1.71321 -0.0205,-0.37315 -0.1499,-0.8152 -0.0873,-1.21101 0.023,-0.17729 0.13803,-0.44661 0.29247,-0.52971 0.062,-0.0366 0.28998,-0.19145 0.36132,-0.3895 0.11734,-0.31997 -0.13329,-0.47192 -0.20702,-0.51563 0.19805,-0.0807 0.3868,-0.48121 0.20702,-0.79468 -0.11504,-0.12212 -0.25116,-0.61032 -0.26474,-0.76878 -0.0437,-0.23065 -0.0505,-0.46529 0.16589,-0.61266 0.4857,-0.25599 0.9443,-0.31826 1.45075,-0.54107 0.3478,-0.14574 0.52763,-0.50711 0.51357,-0.83195 l -0.20702,-0.70902 c -0.50004,-1.15376 -1.06166,-2.14398 -1.47142,-3.30463 -0.29234,-0.41694 -0.12438,-0.85902 -0.16158,-1.30599 -0.18628,-0.69311 -0.47877,-1.22734 -0.75514,-1.90229 -0.0784,-0.19336 0.13791,-0.24811 0.21384,-0.38677 0.12441,-0.34063 0.0373,-0.72277 -0.11703,-1.05011 -0.062,-0.18696 0.16073,-0.31772 0.11703,-0.51108 -0.006,-0.29951 -0.26935,-0.50219 -0.47858,-0.66084 -0.31366,-0.45165 -0.45875,-0.68842 -0.84786,-1.09646 v -0.0786 c 0.19565,-0.17271 0.35487,-0.47161 0.35018,-0.72742 -0.0784,-0.29014 -0.14032,-0.56167 -0.41927,-0.76469 -0.44448,-0.24873 -0.89555,0.14034 -1.24804,0.34087 -0.0989,0.0689 -0.14731,0.13857 -0.28588,0.12681 -0.0891,-0.0324 -0.1806,-0.0663 -0.27678,-0.1009 0.2463,-0.28132 0.33308,-0.51216 0.33928,-0.52994 l 0.0391,-0.1109 -0.11044,-0.0366 c -0.0262,-0.0112 -0.65036,-0.22208 -1.57596,0.0732 -0.10768,-0.0709 -0.20782,-0.15126 -0.30428,-0.23588 0.14003,-0.336 0.18231,-0.61907 0.19134,-0.81719 l 0.1743,-0.37791 2.41746,-2.76015 -0.28316,-0.15861 c -2.45306,-1.36539 -5.24165,-2.0863597 -8.0625,-2.0863597 z m 0,0.5269897 c 2.62032,0 5.21154,0.64982 7.51188,1.86774 -0.33818,0.38481 -1.66451,1.90153 -1.87342,2.13544 -1.32817,-0.62267 -2.7254,-1.01499 -4.17363,-1.17191 -0.008,-9.3e-4 -0.0168,-0.002 -0.0252,-0.002 -0.1124,-0.012 -0.22492,-0.0229 -0.33792,-0.032 -0.0134,-10e-4 -0.027,-0.002 -0.0405,-0.003 -0.10806,-0.008 -0.21637,-0.0162 -0.32496,-0.022 -0.11792,-0.006 -0.23598,-0.0112 -0.35451,-0.0145 -7e-4,-2e-5 -10e-4,2e-5 -0.002,0 -0.1262,-0.004 -0.25286,-0.005 -0.37973,-0.005 0,0 -2.3e-4,0 -2.3e-4,0 -0.57386,0 -1.13961,0.0363 -1.69458,0.10704 -0.11094,0.0141 -0.22148,0.0297 -0.33156,0.0466 -0.22022,0.0337 -0.43904,0.0731 -0.65561,0.11749 -0.10824,0.0222 -0.21609,0.0456 -0.32337,0.0704 -0.10728,0.0248 -0.21436,0.051 -0.32064,0.0784 -0.10628,0.0274 -0.21222,0.0562 -0.31747,0.0861 -0.10524,0.03 -0.21034,0.0614 -0.31451,0.0939 -0.20841,0.065 -0.41465,0.13495 -0.61857,0.20974 -0.40789,0.14962 -0.80688,0.31856 -1.19509,0.50586 -0.097,0.0468 -0.19337,0.095 -0.28906,0.14407 -0.28719,0.14727 -0.56862,0.30472 -0.84331,0.47177 -0.27469,0.16705 -0.54299,0.34384 -0.80423,0.52971 -0.26125,0.18588 -0.51579,0.38096 -0.76264,0.58471 -0.0823,0.0679 -0.16371,0.13698 -0.24429,0.20679 -0.16122,0.13966 -0.31926,0.28307 -0.47359,0.43018 -0.0771,0.0735 -0.15347,0.14827 -0.22884,0.22361 -1.58353,1.58312 -2.77154,3.56167 -3.40121,5.773 -0.03,0.1053 -0.0587,0.21112 -0.0861,0.31746 -0.0549,0.21268 -0.10462,0.4274 -0.14908,0.64402 -0.0222,0.10831 -0.0432,0.21709 -0.0627,0.32633 -0.13701,0.76469 -0.20861,1.55169 -0.20861,2.35519 0,0.30608 0.01,0.60965 0.0291,0.91058 7e-5,0.001 1.5e-4,0.002 2.3e-4,0.004 0.18719,2.92069 1.27522,5.58649 3.17623,7.76118 -0.12255,0.28154 -0.33382,0.88783 -0.33382,1.69004 0,0.66806 0.15457,1.46925 0.62697,2.32178 -3.88979,-3.09769 -6.25043,-7.80987 -6.25043,-12.68722 0,-8.8639 7.21295,-16.07457 16.07706,-16.07457 z m 0.24656,0.40336 -0.18225,1.95092 c 0.11714,0 0.23524,0.002 0.35019,0.004 l 0.18384,-1.94547 c -0.11724,-0.002 -0.23464,-0.007 -0.35178,-0.009 z m -2.5429,0.16544 c -0.11724,0.0165 -0.2323,0.0348 -0.34791,0.0554 l 0.37086,1.91615 c 0.11562,-0.0183 0.23045,-0.0371 0.34769,-0.0529 z m 5.50871,0.16589 -0.74401,1.84047 c 0.11791,0.0207 0.23514,0.0436 0.35018,0.0691 l 0.74174,-1.83344 c -0.11743,-0.0273 -0.23297,-0.051 -0.34791,-0.0761 z m -8.32748,0.52289 c -0.11007,0.0394 -0.22098,0.0782 -0.33133,0.11726 l 0.87717,1.75981 c 0.11026,-0.0394 0.22128,-0.076 0.33383,-0.11317 z m 10.81947,0.21861 -1.27418,1.61255 c 0.11791,0.0388 0.23297,0.0799 0.34792,0.12431 l 1.26463,-1.59823 c -0.11074,-0.0484 -0.22343,-0.0943 -0.33837,-0.13863 z m -13.50486,1.00421 c -0.10308,0.0601 -0.20473,0.1221 -0.3061,0.18225 l 1.30826,1.49438 c 0.10319,-0.0596 0.2071,-0.11754 0.31315,-0.17521 z m 7.80027,0.79946 c 0.002,0 0.003,0 0.005,0 0.11844,4e-5 0.23667,0.002 0.35451,0.005 0.11365,0.003 0.22712,0.008 0.34019,0.0136 2.3e-4,2e-5 4.6e-4,-10e-6 6.9e-4,0 0.11571,0.006 0.23104,0.0139 0.3461,0.0232 1.2e-4,2e-5 3.5e-4,-10e-6 4.7e-4,0 1.49859,0.1209 2.94199,0.50255 4.30997,1.13488 -0.0181,0.0384 -0.0353,0.0759 -0.0529,0.11407 -0.16436,0.068 -0.38054,0.1793 -0.61902,0.36269 -1.48186,-0.62452 -3.05415,-0.94671 -4.6847,-0.94671 -6.66724,0 -12.09047,5.42314 -12.09047,12.08797 0,2.42525 0.6382,4.6032 1.88638,6.50154 0.24347,0.60266 0.67303,1.00314 0.70015,1.02716 l 0.0648,0.0607 c -0.10001,0.15304 -0.23587,0.35729 -0.39223,0.59539 -1.77614,-2.09331 -2.78859,-4.63981 -2.94239,-7.43304 -0.008,-0.15184 -0.0147,-0.3042 -0.018,-0.45745 -0.002,-0.0978 -0.003,-0.19595 -0.003,-0.29428 0,-3.63837 1.52579,-6.92639 3.97115,-9.25806 0.37052,-0.35328 0.76219,-0.68467 1.17282,-0.99193 0.0821,-0.0614 0.16503,-0.12187 0.24861,-0.18135 0.0836,-0.0595 0.16805,-0.11813 0.25315,-0.17566 0.085,-0.0575 0.17077,-0.11403 0.25725,-0.16953 1.21151,-0.77736 2.5623,-1.3561 4.00569,-1.69004 0.10302,-0.0238 0.20669,-0.0466 0.31064,-0.0679 0.83224,-0.1707 1.69358,-0.2602 2.57563,-0.2602 z m -10.25272,0.94603 c -0.0895,0.0784 -0.18173,0.15936 -0.26951,0.23997 l 1.6514,1.14646 c 0.0918,-0.0783 0.18637,-0.15428 0.28133,-0.2327 z m 10.25272,0.28837 c 1.47783,0 2.90679,0.2738 4.25884,0.81173 -0.0326,0.0354 -0.0652,0.0708 -0.0977,0.10908 -0.67172,0.79745 -0.84469,2.08454 -0.86059,2.21475 -0.10506,0.052 -0.20703,0.11027 -0.30451,0.17407 0.67301,-1.0015 0.44685,-1.83385 0.43768,-1.8682 l -0.0325,-0.11271 -0.10999,0.032 c -0.0301,0.007 -0.73261,0.2074 -1.35916,1.04807 -0.0642,0.0849 -0.12895,0.1841 -0.18862,0.29655 -0.46504,0.85253 -0.47222,1.90733 -0.47222,1.95342 l 0.003,0.18612 0.16544,-0.0827 c 0.013,-0.006 0.12374,-0.0635 0.28678,-0.17294 l -0.0884,0.13158 c -0.0932,0.0274 -0.18808,0.0584 -0.28565,0.0968 -0.19783,0.077 -0.38254,0.18307 -0.5529,0.30292 0.0486,-0.0733 0.0967,-0.14875 0.1434,-0.22907 0.61259,-1.05526 0.28506,-1.89136 0.2711,-1.92569 l -0.0436,-0.1084 -0.10567,0.0418 c -0.0301,0.0113 -0.71137,0.27846 -1.26918,1.12851 -0.0572,0.0898 -0.11267,0.19339 -0.17043,0.31542 -0.40728,0.88666 -0.28761,1.91129 -0.28292,1.9525 l 0.0207,0.17044 0.15202,-0.0825 c 0.01,-0.005 0.0889,-0.0516 0.20407,-0.13271 -0.0409,0.0609 -0.0709,0.10791 -0.0757,0.11612 l -0.0895,0.14748 0.17044,0.0277 c 0.01,10e-4 0.0739,0.0102 0.17771,0.0164 -0.19858,0.0375 -0.41074,0.095 -0.63107,0.18407 -0.1759,0.0711 -0.33942,0.16519 -0.49063,0.27111 0.0851,-0.13407 0.16781,-0.27931 0.24407,-0.43927 0.5183,-1.0894 0.0991,-1.91111 0.0802,-1.94592 l -0.0529,-0.10158 -0.1009,0.0509 c -0.0276,0.0143 -0.68858,0.35025 -1.17896,1.20919 -0.0509,0.0943 -0.0993,0.19802 -0.14976,0.3295 -0.35497,0.92062 -0.10639,1.91607 -0.0945,1.95729 l 0.0391,0.15202 0.13384,-0.0832 c 0.004,-0.002 0.0247,-0.0154 0.0541,-0.0352 -0.0765,0.11729 -0.11987,0.19612 -0.12612,0.20816 l -0.0755,0.13998 0.15612,0.0302 c 0.0394,0.007 0.94471,0.1705 2.07772,-0.31769 1.15376,-0.49296 1.42944,-1.42082 1.4412,-1.45983 l 0.0327,-0.11772 -0.11794,-0.0277 c -0.0135,-0.004 -0.15612,-0.0376 -0.38087,-0.0543 0.30493,-0.0494 0.65877,-0.13855 1.04011,-0.2977 1.15768,-0.48177 1.44147,-1.37261 1.45257,-1.40961 l 0.0373,-0.11499 -0.11521,-0.0325 c -0.004,-0.001 -0.0201,-0.005 -0.0452,-0.0111 0.23742,-0.0543 0.49666,-0.13158 0.77037,-0.24225 1.16093,-0.46925 1.45579,-1.32173 1.46688,-1.35826 l 0.0195,-0.0584 c 0.20271,-0.0521 0.41909,-0.11974 0.64584,-0.20884 0.34291,-0.13467 0.60932,-0.29989 0.81741,-0.46699 -0.005,0.004 -0.0102,0.009 -0.0157,0.0132 l 0.4304,0.17498 c 0.014,0.0119 0.0207,0.0206 0.0207,0.037 0,0.006 -0.005,0.0207 -0.005,0.0318 -0.0294,0.0254 -0.9992,0.87558 -0.9992,0.87558 -0.002,0.002 -1.74572,1.72208 -1.74572,1.72208 0,0.002 -0.49767,0.50949 -0.49767,0.50949 -0.004,0.002 -1.55165,1.78684 -1.55165,1.78684 -0.81054,0.93984 -2.00856,2.48028 -2.72674,3.60869 -0.37543,0.51582 -0.74866,1.08945 -1.09646,1.633 -0.0365,0.0597 -0.10776,0.0548 -0.22089,0.0414 -0.076,-0.01 -0.15636,-0.0161 -0.22588,0.007 h 0.002 l -0.0159,0.004 c 0.005,-0.002 0.009,-0.002 0.0136,-0.004 -0.39389,0.0437 -0.6817,0.17529 -0.98761,0.45109 -0.3961,0.47001 -0.59653,1.03663 -0.59653,1.64913 0,0.42163 0.0944,0.86583 0.2877,1.31031 -0.0807,0.23955 -0.26716,0.44955 -0.43518,0.63584 l -0.0943,0.10339 -0.11976,0.11976 c -0.0759,0.0715 -0.16619,0.15663 -0.22815,0.23725 l -0.007,0.007 -0.005,0.0111 c -0.007,0.0254 -0.0111,0.0737 0.0673,0.11067 l 0.0184,0.0114 0.0207,-0.004 c 0.36606,-0.0879 0.59632,-0.36439 0.8199,-0.63129 0,0 0.14043,-0.16113 0.1609,-0.18657 0.0348,-0.005 0.0627,0.0137 0.10862,0.0555 0.0253,0.0207 0.0547,0.0391 0.0873,0.055 v 0.0189 c 0,0 -0.005,0.11963 -0.005,0.14726 -0.86783,0.85674 -1.57517,1.34001 -2.50085,1.88365 l -0.15431,0.0895 0.17976,0.0191 c 0.35966,0.0365 0.70285,-0.16635 1.0342,-0.36201 l 0.39836,-0.21883 c 0.36607,-0.18858 0.70673,-0.47619 1.03875,-0.75265 0,0 0.29651,-0.24892 0.32883,-0.27656 0.0325,0.007 0.0667,0.0459 0.092,0.0784 0,0 0.0212,0.0205 0.0348,0.0348 0.005,0.009 0.2765,0.54761 0.29247,0.57994 -0.062,0.2536 -0.0873,0.50888 -0.0873,0.76468 0,0.55484 0.11958,1.11015 0.23702,1.65141 0.11724,0.53409 0.23701,1.08424 0.23701,1.6255 0,0.037 -7e-5,0.0711 -0.002,0.1059 0,0.16802 -0.18176,0.38906 -0.3361,0.4604 -0.3456,0.0577 -0.76709,0.0626 -1.20919,0.0673 -0.54518,0.004 -1.10939,0.009 -1.54278,0.12612 -0.13789,0.0165 -0.29947,0.0624 -0.45563,0.10612 -0.15214,0.0411 -0.31148,0.0879 -0.45904,0.10635 l -0.0134,0.002 -0.0184,0.0136 -0.0529,0.0373 c -0.0484,0.0294 -0.11073,0.0689 -0.12431,0.14021 0,0.007 -0.002,0.0135 -0.002,0.0207 0,0.0389 0.0184,0.0879 0.0509,0.11726 0.0301,0.0325 0.0665,0.0461 0.10589,0.0443 0.13082,0 0.27851,-0.0555 0.42109,-0.10613 0.0992,-0.0372 0.20276,-0.0737 0.29724,-0.0902 0.90561,-0.15396 1.89524,-0.12388 2.5679,-0.0691 0.33135,-0.005 0.87494,-0.0158 1.07079,-0.4879 0.0713,-0.19116 0.0966,-0.36862 0.0966,-0.53903 0,-0.18858 -0.0297,-0.36842 -0.0595,-0.55471 l -0.06,-0.45858 c -0.0389,-0.27838 -0.0993,-0.55722 -0.15657,-0.829 -0.10137,-0.47642 -0.20498,-0.9693 -0.20498,-1.46916 0,-0.10136 0.005,-0.20291 0.0136,-0.30428 0.009,-0.0137 0.0205,-0.0278 0.0348,-0.0295 0.0276,-0.005 0.0785,0.0366 0.11976,0.0691 0.0459,0.0341 0.0942,0.0714 0.14725,0.085 0.0601,0.0434 0.12675,0.0577 0.18862,0.0648 0.0878,0.0112 0.13393,0.0231 0.16157,0.0898 0.0365,0.43741 0.18883,0.8911 0.3361,1.33099 0.10146,0.30123 0.20523,0.61262 0.27179,0.91853 0.11963,0.53256 0.23929,1.07341 0.23929,1.60778 0,0.31777 -0.0411,0.63309 -0.15385,0.94217 -0.23046,0.42306 -0.73918,0.42314 -1.22736,0.42563 h -0.14748 l -1.2026,-0.0739 c -1.02944,-0.0738 -2.09529,-0.14964 -3.18737,0.0255 0.007,0 -0.24383,0.0275 -0.24383,0.0275 -0.13551,0.0207 -0.26246,0.0373 -0.39882,0.005 -0.0506,-0.0412 -0.0918,-0.11064 -0.0918,-0.18657 0,-0.0232 0.005,-0.0464 0.0141,-0.0693 0.19585,-0.43023 0.29269,-0.81933 0.29269,-1.16464 0,-0.27895 -0.0648,-0.52769 -0.19157,-0.74878 -0.28296,-0.54116 -0.59387,-0.9163 -0.97648,-1.17919 -0.46992,-0.46753 -0.87019,-0.88428 -1.22736,-1.28917 -2.5e-4,-3e-5 -4.3e-4,3e-5 -6.9e-4,0 l 6.9e-4,-10e-4 c 0.37288,0.0471 1.00586,0.0462 1.72753,-0.30814 1.12833,-0.55235 1.36051,-1.67165 1.37008,-1.72004 l 0.0229,-0.11749 -0.11953,-0.0182 c -0.0462,-0.009 -1.15147,-0.18202 -2.12363,0.26725 -0.27321,0.12672 -0.49235,0.30911 -0.66902,0.50699 0.0582,-0.21379 0.10046,-0.45321 0.11181,-0.72129 0.0167,-0.36416 -0.0459,-0.68368 -0.14226,-0.95694 0.14415,0.24141 0.27596,0.39165 0.28974,0.40632 l 0.0707,0.0825 c -0.0254,0.067 -0.0432,0.11863 -0.0457,0.12749 l -0.0339,0.11021 0.11022,0.0348 c 0.0388,0.0111 0.95308,0.28518 2.07681,-0.2511 1.13301,-0.54375 1.37489,-1.62378 1.38416,-1.66959 l 0.0254,-0.11726 -0.11953,-0.0214 c -0.0437,-0.009 -1.0983,-0.18879 -2.07295,0.25111 -0.19237,0.0869 -0.36065,0.20136 -0.5079,0.32905 0.0774,-0.21491 0.14092,-0.45844 0.1743,-0.73401 0.0488,-0.40716 -0.006,-0.76155 -0.10021,-1.05624 0.13568,0.33352 0.28854,0.55145 0.30064,0.57039 l 0.0714,0.0984 0.073,-0.057 c -0.10169,0.19269 -0.15739,0.33597 -0.16271,0.352 l -0.0441,0.11794 0.12203,0.0343 c 0.0395,0.0118 0.95149,0.25573 2.07523,-0.26974 1.13951,-0.52921 1.38831,-1.57051 1.40007,-1.61642 l 0.0254,-0.11725 -0.11726,-0.023 c -0.0419,-0.007 -1.04361,-0.1959 -2.02227,0.23452 -0.20898,0.0917 -0.3917,0.21606 -0.55222,0.35451 0.10475,-0.20578 0.19993,-0.44663 0.26884,-0.7231 l 0.13385,0.0327 c 0.0387,0.009 0.94849,0.22807 2.07681,-0.28383 1.14487,-0.51754 1.40012,-1.52203 1.41189,-1.56574 l 0.0302,-0.11748 -0.11953,-0.025 c -0.0397,-0.01 -0.98836,-0.20309 -1.9741,0.21634 -0.0897,0.0385 -0.17389,0.0843 -0.25542,0.13317 0.0994,-0.19273 0.19112,-0.41087 0.26247,-0.65811 0.33135,-1.16093 -0.27186,-1.95545 -0.29702,-1.98796 l -0.0713,-0.092 -0.0925,0.0714 c -0.0273,0.0206 -0.63978,0.49757 -0.99943,1.37075 -0.0411,0.1007 -0.0781,0.21878 -0.10999,0.35428 -0.24252,0.99043 0.26224,1.92554 0.28519,1.96456 l 0.01,0.0186 c -0.15006,0.24063 -0.22883,0.42286 -0.23589,0.44154 l -0.055,0.1259 c 0.0129,-0.0517 0.0259,-0.10328 0.0368,-0.15748 0.23936,-1.19565 -0.45573,-1.97159 -0.48585,-2.0041 l -0.0784,-0.0848 -0.0854,0.0784 c -0.0254,0.023 -0.61274,0.5684 -0.90967,1.44847 -0.0366,0.11256 -0.069,0.23252 -0.0943,0.37042 -0.0789,0.43973 -0.006,0.85578 0.10385,1.19145 -0.19727,-0.47058 -0.47724,-0.74291 -0.49767,-0.76059 l -0.085,-0.0832 -0.0809,0.0879 c -0.023,0.0254 -0.58237,0.6425 -0.81991,1.52687 -0.0319,0.12193 -0.0573,0.24832 -0.0739,0.38201 -0.0463,0.38226 0.0244,0.73884 0.1343,1.04124 -0.21786,-0.35169 -0.44896,-0.54833 -0.46767,-0.56425 l -0.092,-0.0761 -0.0739,0.0945 c -0.0271,0.033 -0.58746,0.76281 -0.74901,1.69367 -0.81795,-1.57713 -1.23418,-3.33732 -1.23418,-5.25896 0,-6.37412 5.18609,-11.5603 11.56098,-11.5603 z m 5.52234,0.22521 c 0.002,0.005 0.003,0.007 0.003,0.0141 0,0.0441 -0.003,0.0999 -0.009,0.16043 -0.002,0.0191 -0.004,0.0389 -0.006,0.0595 -0.003,0.0209 -0.005,0.0413 -0.008,0.0636 -0.005,0.0316 -0.0115,0.0657 -0.0184,0.1 -0.008,0.0372 -0.0169,0.076 -0.0273,0.11612 -0.006,0.0241 -0.0125,0.0484 -0.0198,0.0734 -0.01,0.0341 -0.0212,0.069 -0.0334,0.10476 -0.007,0.022 -0.0161,0.0447 -0.0245,0.0673 -0.033,0.088 -0.0716,0.17947 -0.12044,0.27497 l 7e-4,2.3e-4 c -0.085,0.16641 -0.19551,0.34223 -0.34133,0.52244 -0.5206,0.64253 -1.06665,1.00661 -1.34962,1.17215 0.0762,-0.41666 0.28785,-1.30758 0.77355,-1.88116 0.0507,-0.0597 0.10149,-0.11355 0.15203,-0.16566 0.0227,-0.0238 0.0453,-0.0455 0.0679,-0.0677 0.0406,-0.0395 0.0814,-0.0782 0.12135,-0.11317 0.006,-0.005 0.0115,-0.0107 0.0173,-0.0157 0.0547,-0.0471 0.10855,-0.0901 0.16112,-0.1293 0.004,-0.003 0.008,-0.006 0.0118,-0.009 0.10642,-0.0785 0.20746,-0.14184 0.29929,-0.19225 0.005,-0.002 0.009,-0.005 0.0132,-0.007 0.0794,-0.0429 0.15029,-0.0753 0.21293,-0.10112 0.0452,-0.0186 0.0903,-0.0367 0.12453,-0.0473 z m -0.0768,1.18259 c 0.0474,0.0296 0.0948,0.0611 0.13975,0.0927 -0.0958,0.0419 -0.18936,0.0894 -0.28042,0.1418 0.0519,-0.0795 0.0998,-0.15803 0.14067,-0.23452 z m 1.41461,0.0645 c 0.1618,0.002 0.28917,0.0193 0.37541,0.0357 -0.1268,0.22807 -0.47864,0.73211 -1.2869,1.04988 -0.3582,0.14075 -0.69042,0.2251 -0.97784,0.27679 -0.17765,-0.0195 -0.42115,-0.0262 -0.71197,0.0139 0.29091,-0.33863 0.87521,-0.93861 1.53756,-1.18373 0.42895,-0.15695 0.79408,-0.1959 1.06374,-0.19248 z m -3.62914,0.15998 c 0.005,0.0555 0.0118,0.11981 0.0118,0.20521 0,0.31308 -0.0762,0.81534 -0.46063,1.37257 -0.46744,0.67265 -0.99513,1.06401 -1.26691,1.23691 0.0254,-0.34312 0.1131,-1.04598 0.43336,-1.62846 0.0548,-0.10385 0.11249,-0.19088 0.17044,-0.27178 0.42803,-0.57129 0.89561,-0.82245 1.11192,-0.91445 z m -15.58848,0.29247 c -0.0735,0.0967 -0.14739,0.19351 -0.22112,0.29019 l 1.89775,0.73924 c 0.0778,-0.0967 0.15633,-0.19106 0.23474,-0.28315 z m 21.04083,0.11976 c 0.0392,-5.8e-4 0.0821,0.0152 0.13226,0.0555 l 0.18202,0.16793 c 0.12212,0.13838 0.0161,0.5324 -0.1084,0.64266 -0.10136,0.0831 -0.19825,0.16162 -0.29474,0.24156 0.30171,0.29951 0.73923,0.86864 1.09602,1.23691 0.15683,0.16113 0.10835,0.32961 0.3895,0.45813 0.14038,0.0673 0.18172,0.22107 0.0968,0.35246 -0.24883,0.32017 -0.6632,0.27186 -0.99035,0.35496 -1.2162,0.26939 -2.19737,0.61673 -3.5421,1.26872 -1.07535,0.57129 -1.93431,1.20223 -2.71493,2.1809 -0.29721,0.36855 -0.6313,0.64733 -0.88012,1.08942 -0.70909,0.90971 -1.27104,1.76394 -1.83525,2.70129 -0.20054,0.29482 -0.26472,0.44204 -0.54835,0.70674 -0.13551,0.13149 -0.25779,-0.14033 -0.34337,-0.23452 -0.009,-0.009 -0.0158,-0.0236 -0.023,-0.0325 -0.0275,0.005 -0.0569,-0.002 -0.087,-0.0205 -0.0762,-0.0992 -0.31289,-0.14122 -0.26929,-0.31383 0.97149,-1.74312 2.15058,-3.25619 3.41508,-4.81082 l 1.77116,-2.01251 c 1.26163,-1.34702 2.65746,-2.72913 4.20521,-3.7973 0.14675,-0.0832 0.23117,-0.2333 0.34883,-0.2352 z m -3.70368,1.02738 c 0.0424,0.005 0.0806,0.0107 0.11249,0.0161 -0.12202,0.23706 -0.46992,0.76935 -1.27827,1.09601 -0.77163,0.31127 -1.4325,0.3478 -1.75276,0.34292 0.24644,-0.31997 0.83122,-1.00161 1.53801,-1.271 0.13386,-0.0506 0.26073,-0.0866 0.38314,-0.11612 0.0609,0.006 0.4321,0.0314 0.99739,-0.068 z m -3.95024,0.1009 c 0.0229,0.095 0.0461,0.23301 0.0461,0.417 0,0.30639 -0.0691,0.72338 -0.33383,1.18373 -0.41263,0.70746 -0.92632,1.12431 -1.18145,1.30122 -0.002,-0.0508 -0.005,-0.11046 -0.005,-0.1818 0,-0.36386 0.0458,-0.94188 0.2811,-1.45302 0.0523,-0.11322 0.10326,-0.20532 0.15385,-0.28383 0.38261,-0.58238 0.83133,-0.87007 1.03874,-0.9833 z m -15.03355,1.34758 c -0.0553,0.11035 -0.11078,0.22148 -0.16089,0.33155 l 2.04204,0.28542 c 0.058,-0.11255 0.11802,-0.22105 0.17998,-0.32882 z m 16.5702,0.30042 c 0.17832,2.3e-4 0.32123,0.0166 0.41609,0.0311 -0.11724,0.24424 -0.45567,0.80369 -1.271,1.1426 -0.77583,0.32418 -1.44626,0.34529 -1.75935,0.33133 0.2233,-0.31558 0.77585,-1.0134 1.48484,-1.29167 0.43636,-0.16993 0.83221,-0.21386 1.12942,-0.21339 z m -3.62074,0.0311 c 0.0437,0.12212 0.10386,0.33432 0.10386,0.62675 0,0.27579 -0.0554,0.61662 -0.23748,0.99694 -0.35201,0.74159 -0.85211,1.18597 -1.09147,1.36757 -0.0253,-0.14258 -0.0529,-0.36357 -0.0529,-0.62607 0,-0.30888 0.0389,-0.67246 0.17044,-1.01807 0.0484,-0.11963 0.0896,-0.21391 0.13794,-0.29701 0.33833,-0.59203 0.76932,-0.92082 0.96966,-1.05011 z m 11.10945,1.21623 c 0.0691,-0.0143 0.10772,0.0387 0.13316,0.0759 0.0436,0.0802 0.0507,0.17223 0.0182,0.25543 -0.0388,0.0412 -0.0869,0.0896 -0.15134,0.0736 -0.14727,-0.10366 -0.0926,-0.23473 -0.0832,-0.35905 0.0301,-0.0301 0.0349,-0.0459 0.0832,-0.0459 z m -0.54585,0.0507 c 0.0483,0.009 0.11018,0.004 0.14021,0.05 -0.0183,0.33671 -0.46746,0.61512 -0.84309,0.71878 -0.15846,0.0253 -0.306,0.0164 -0.44859,0.0164 -0.0372,-0.0251 -0.0785,-0.0576 -0.0738,-0.0945 0.0253,-0.15865 0.0508,-0.25328 0.062,-0.39586 l 0.092,-0.0695 c 0.33174,-0.0667 0.73702,-0.1379 1.07125,-0.2252 z m -12.45429,0.21634 -0.0966,0.062 c -0.0276,0.0165 -0.66562,0.42375 -1.08715,1.28986 -0.0484,0.0967 -0.0922,0.20458 -0.13385,0.34314 -0.29722,0.95572 0.0782,1.92075 0.0966,1.96206 l 0.0532,0.13135 c -0.0843,0.1388 -0.13389,0.23739 -0.14021,0.25065 l -0.0645,0.13362 0.14521,0.0325 c 0.0365,0.006 0.94375,0.19737 2.07704,-0.29951 1.14659,-0.50712 1.41421,-1.47386 1.4253,-1.51574 l 0.0302,-0.11476 -0.11726,-0.03 c -0.0372,-0.007 -0.93276,-0.20956 -1.92319,0.2002 -0.13126,0.0547 -0.25424,0.12225 -0.36996,0.19771 0.0997,-0.17089 0.19445,-0.36257 0.27588,-0.57721 0.42555,-1.1266 -0.0857,-1.93486 -0.10863,-1.9691 z m 10.58427,0.12203 c 0.0492,0.001 0.096,0.0202 0.13317,0.0668 0.005,0.46743 -0.34501,1.03143 -0.86332,1.24554 -0.16371,0.0713 -0.37998,0.0944 -0.57334,0.14339 -0.0484,-0.0418 -0.20522,0.0459 -0.25361,-0.072 0.0301,-0.23468 0.11962,-0.58487 0.0784,-0.79401 l 0.0602,-0.0786 c 0.2734,-0.1292 0.52479,-0.2305 0.8265,-0.31542 l 0.36132,-0.0941 c 0.0604,-0.0549 0.14873,-0.10334 0.23066,-0.10158 z m -10.66017,0.21179 c 0.0712,0.14727 0.18157,0.43984 0.18157,0.83355 0,0.23935 -0.0414,0.51358 -0.15385,0.81309 -0.29243,0.77631 -0.77891,1.24797 -1.00421,1.43961 -0.0577,-0.19164 -0.14316,-0.53959 -0.14316,-0.94467 0,-0.22817 0.0278,-0.47202 0.10135,-0.71128 0.0397,-0.12461 0.0763,-0.22357 0.11976,-0.30906 0.29473,-0.60542 0.70976,-0.97397 0.89854,-1.12124 z m 3.54005,0.0661 c 0.18617,-3.5e-4 0.33629,0.0158 0.43473,0.0305 -0.11036,0.25112 -0.44453,0.84084 -1.25986,1.18873 -0.78769,0.33824 -1.46229,0.34062 -1.76639,0.31997 0.19804,-0.31137 0.71614,-1.02456 1.43029,-1.31508 0.44019,-0.17692 0.85096,-0.22354 1.16123,-0.22407 z m 9.16512,0.0484 c 0.0679,-6.9e-4 0.12125,0.0725 0.16543,0.10886 0.16582,0.55455 0.46997,1.08947 0.64516,1.65368 0.21392,0.42162 0.29248,0.82409 0.21407,1.25508 0.0898,0.6586 0.4677,1.27808 0.72991,1.94365 0.26298,0.7023 0.67275,1.40915 0.97217,2.13249 0.0548,0.29014 0.17921,0.52057 0,0.75514 -0.51582,0.47872 -1.24411,0.48579 -1.83366,0.8749 -0.26939,0.26939 -0.20207,0.5785 -0.0918,0.91922 0.21861,0.43023 0.13559,0.38676 -0.16793,0.48813 -0.71167,0.23687 -0.70466,1.01591 -1.56188,0.88672 -0.0484,0.0136 -0.24825,-0.0873 -0.12862,0.0577 0.0921,0.10806 0.12867,0.0436 0.31065,0.0643 0.30439,0.0159 0.41942,-0.11104 0.63334,-0.25611 0.3041,-0.25753 0.26723,-0.35415 0.64515,-0.53403 0.0896,-0.023 0.31041,-0.0871 0.43473,-0.0434 0.0831,0.0759 0.0857,0.0782 0.0993,0.14726 -0.0483,0.20924 -0.35203,0.38212 -0.46994,0.45336 0.16151,0.11791 0.46096,0.316 0.41018,0.48154 -0.0695,0.11026 -0.0649,0.12925 -0.18453,0.18634 -0.17031,0.0831 -0.5086,0.0691 -0.82877,-0.16794 -0.0484,0.0161 -0.10138,-0.092 -0.23679,0.037 0.3106,0.32017 0.74553,0.24832 0.81037,0.31315 0.0666,0.0642 -0.23269,0.45093 -0.24407,0.53403 -0.2099,0.55532 0.0462,1.06658 -0.0648,1.64437 -0.0689,0.44916 -0.20531,0.66328 -0.59835,0.94921 -0.72572,0.50176 -1.23467,0.64683 -2.04522,0.77832 -2.13243,0.14478 -3.47763,-0.58729 -5.01103,-1.73435 -1.53638,-1.14697 -2.12382,-1.75472 -2.60244,-2.39973 -0.007,-0.2647 0.18631,-0.46512 0.0207,-0.75038 -0.13857,0.0484 -0.1246,0.22981 -0.2077,0.33338 -0.11964,0.16802 -0.40266,0.2902 -0.60539,0.26974 -0.63086,-0.21411 -0.66551,-0.9556 -1.0617,-1.37962 -0.84498,-0.83359 -1.08249,-2.03573 -0.63084,-3.04193 0.15865,-0.31089 0.44449,-0.61045 0.76446,-0.72129 0.39399,-0.0619 0.85911,-0.0617 1.11692,0.32042 0.3041,0.29052 0.49287,0.76208 0.5688,1.17873 0.12432,0.20054 -0.0277,0.43103 0.17975,0.59676 0.36148,0.0348 0.67209,0.12451 1.01989,-0.0966 0.25829,0.0347 0.2927,0.32017 0.48835,0.44449 l 0.34519,0.20748 c 0.36856,0.15147 0.84314,0.15144 1.15374,-0.11794 0.58314,-0.59606 0.45644,-1.21085 0.65697,-1.87002 0.55713,-0.49239 0.92561,-1.19744 0.91853,-1.88615 -0.0341,-0.42316 -0.18633,-0.86106 -0.43745,-1.28259 0.0412,-0.25045 0.18211,-0.43758 0.26225,-0.66106 0.0713,-0.0412 0.16154,-0.0412 0.23747,-0.0548 0.61929,-0.13149 1.18179,-0.69327 1.42325,-1.28531 l 0.0555,-0.0554 c 0.70918,-0.0482 1.59116,-0.29941 1.99864,-1.04034 0.0854,-0.32016 0.44458,-0.0831 0.66788,-0.1593 0.37563,-0.0205 0.75047,-0.23047 1.0342,-0.47222 0.0103,-0.003 0.0203,-0.005 0.03,-0.005 z m -22.69088,0.39882 -2.10249,0.20044 c -0.0348,0.11963 -0.0665,0.23943 -0.0966,0.36155 l 2.08159,-0.19998 c 0.0395,-0.1203 0.0785,-0.24228 0.11748,-0.36201 z m 18.4568,0.44109 c 0.0416,-0.007 0.0791,0.007 0.10249,0.0636 0.0136,0.55952 -0.22333,1.15843 -0.75741,1.55415 -0.32246,0.23974 -0.46296,0.19375 -0.75128,0.21202 l -0.14976,0.26724 c -0.034,0.13321 -0.1515,0.26948 -0.28519,0.35019 -0.20991,0.0967 -0.42619,0.1174 -0.65857,0.009 -0.0602,-0.0784 -0.25123,-0.14523 -0.1752,-0.26247 0.16821,-0.27426 0.45337,-0.49984 0.62856,-0.76923 l 0.0832,-0.0436 c 0.3543,-0.42803 0.91658,-0.78995 1.44847,-1.1126 l 0.32019,-0.14022 c 0.0446,-0.0431 0.12519,-0.11593 0.19452,-0.12794 z m -10.30657,1.00534 c 0.0992,0.17022 0.27588,0.5459 0.27588,1.05034 0,0.19116 -0.0228,0.40031 -0.087,0.6238 -0.23525,0.81284 -0.70451,1.31048 -0.91671,1.50165 -0.092,-0.20943 -0.2577,-0.65624 -0.2577,-1.16737 0,-0.16152 0.0159,-0.33214 0.0548,-0.49768 0.03,-0.12431 0.0648,-0.23066 0.10136,-0.32246 0.2536,-0.6125 0.64737,-1.02207 0.82945,-1.18828 z m 3.4612,0.13113 c 0.19435,-0.002 0.35164,0.014 0.45359,0.028 -0.10557,0.26001 -0.43055,0.87712 -1.24827,1.23849 -0.79707,0.3501 -1.47839,0.33668 -1.77321,0.30656 0.17739,-0.30658 0.65599,-1.03854 1.37235,-1.33576 0.44479,-0.18426 0.87163,-0.23459 1.19554,-0.23724 z m 10.19659,0.10998 c -0.0254,-10e-4 -0.0513,-7e-4 -0.0775,0.001 -0.78989,0.11963 -1.40226,0.77109 -2.03341,1.18555 -0.13139,0.0853 -0.29947,0.10589 -0.40314,0.20974 0.0484,0.0548 0.11718,0.0618 0.19339,0.0618 0.6125,-0.28297 1.14017,-0.82392 1.77094,-1.09579 0.24873,-0.0626 0.47221,-0.1934 0.72333,-0.0691 0.15147,0.0761 0.17917,0.30354 0.35905,0.28996 0.0784,-0.11714 0.0136,-0.22802 -0.0832,-0.35473 -0.11439,-0.14492 -0.27176,-0.22132 -0.4495,-0.22861 z m -22.39772,0.81582 -2.03819,0.70901 c -0.009,0.12461 -0.0159,0.2513 -0.0229,0.37792 l 2.015,-0.6997 c 0.0143,-0.12919 0.0301,-0.25823 0.0461,-0.38723 z m 22.57157,0.0459 c -0.0419,0.0972 7e-5,0.20288 -0.0418,0.29315 -0.057,0.0689 -0.15439,0.15149 -0.26474,0.12385 -0.76446,0.0488 -1.33345,0.72072 -1.98478,1.06852 -0.22348,0.12461 -0.47259,0.19596 -0.70947,0.25793 -0.0207,0.0348 -0.0141,0.0831 0.0207,0.10362 0.72277,0.0762 1.43659,0.14496 2.15294,0.22089 l 0.79719,-0.0895 c 0.023,-0.10357 -0.10392,-0.19329 -0.0832,-0.31292 0.092,-0.32466 0.1196,-0.67965 0.03,-0.98557 0.062,-0.16582 0.29726,-0.0419 0.31065,-0.24179 -0.0483,-0.15444 -0.0412,-0.40342 -0.22747,-0.43814 z m -0.44336,0.84696 c 0.065,0.005 0.1156,0.0609 0.12748,0.1093 0.0506,0.19987 0.0189,0.51997 -0.0136,0.71333 -0.099,0.14555 -0.25354,0.019 -0.38905,0.0373 -0.31309,-0.0372 -0.84073,0.0364 -1.18623,-0.007 -0.0531,-0.03 -0.0896,-0.0826 -0.06,-0.1309 0.053,-0.0879 0.19806,-0.0924 0.28814,-0.15907 0.37745,-0.23467 0.77364,-0.46039 1.20464,-0.56176 0.01,-0.001 0.0194,-0.002 0.0286,-9.3e-4 z m -5.98479,0.11157 c 0.0305,-9.3e-4 0.0603,0.007 0.0854,0.0273 0.15865,0.12432 0.16811,0.20745 0.2143,0.3661 0.0784,0.58964 -0.27901,0.99505 -0.70924,1.31531 -0.30439,0.26221 -0.59682,0.67264 -0.53017,1.07533 l 0.0255,0.0252 c 0.14087,-0.11495 0.31594,-0.18377 0.37542,-0.32951 0.23285,-0.51984 0.85889,-0.75746 1.20918,-1.20873 0.15434,-0.27159 0.0595,-0.73916 0,-1.05216 0,0.009 0.46042,-0.21929 0.3361,-0.13839 0.2188,0.092 0.19096,0.24851 0.29701,0.44904 0.20771,0.52051 0.1887,0.99228 -0.12908,1.44393 l -0.87467,1.0917 c -0.0137,0.55464 0.13785,1.27112 -0.39155,1.59845 -0.0968,0.0548 -0.93742,-0.26549 -0.83854,-0.1777 -0.20025,-0.21392 0.1268,-0.28575 -0.61471,-0.56403 l -0.17997,0.0182 c -0.023,0.0207 -0.0872,0.0554 -0.15385,-0.0366 -0.007,-0.11322 0.14044,-0.097 0.18634,-0.2352 0.2647,-0.59643 0.11738,-1.05944 0.092,-1.67663 l 0.19588,-0.50653 c 0.37296,-0.44697 0.3707,-0.51097 0.62403,-0.75492 0.2514,-0.35497 0.30441,-0.3828 0.64265,-0.67265 0.0347,-0.0302 0.0871,-0.0559 0.13794,-0.0575 z m -9.0983,0.0414 c 0.13321,0.18629 0.39564,0.63792 0.39564,1.25759 0,0.14038 -0.0136,0.28765 -0.0461,0.44381 -0.17021,0.85005 -0.62585,1.37307 -0.82399,1.56892 -0.13169,-0.22128 -0.39632,-0.74182 -0.39632,-1.33826 0,-0.11035 0.009,-0.22591 0.03,-0.33837 0.0207,-0.12441 0.0484,-0.23282 0.0827,-0.33428 0.21211,-0.62608 0.58788,-1.07781 0.7581,-1.25941 z m 3.42257,0.12953 c 0.20312,-0.003 0.36834,0.0114 0.47381,0.0243 -0.10137,0.26518 -0.42168,0.91676 -1.23941,1.28531 -0.79878,0.36358 -1.48965,0.33175 -1.7773,0.29474 0.15396,-0.3019 0.59598,-1.05004 1.31463,-1.35644 0.44617,-0.18982 0.88974,-0.24306 1.22827,-0.24793 z m -10.57791,1.3744 -1.84934,1.21327 c 0.0183,0.129 0.0348,0.25575 0.0555,0.38428 l 1.81934,-1.19487 c -0.01,-0.13321 -0.0184,-0.26727 -0.0255,-0.40268 z m 9.33464,0.72264 c 0.21151,-0.004 0.3846,0.0103 0.49426,0.0232 -0.0968,0.27159 -0.41214,0.9534 -1.22986,1.33372 -0.80816,0.37792 -1.50381,0.3246 -1.78276,0.28042 0.13388,-0.29473 0.53703,-1.05889 1.25759,-1.37666 0.4491,-0.19748 0.90826,-0.25421 1.26077,-0.26066 z m -3.72277,0.0207 c 0.1685,0.19805 0.53244,0.71873 0.53244,1.46052 0,0.0849 -0.005,0.1773 -0.0166,0.26929 -0.10558,0.88667 -0.54763,1.43677 -0.7322,1.63482 -0.16572,-0.2188 -0.54766,-0.79411 -0.54766,-1.47393 0,-0.0688 0.004,-0.13782 0.0134,-0.20907 0.0136,-0.12212 0.0366,-0.23948 0.0666,-0.35041 0.17041,-0.63555 0.52537,-1.13068 0.68401,-1.33122 z m 8.67835,0.19748 c 0.007,3.5e-4 0.0147,0.002 0.0223,0.005 l 0.0575,0.0832 -0.0139,0.39632 c -0.0366,0.36147 -0.2024,0.77818 -0.54313,0.97852 -0.20273,-0.0481 -0.12916,-0.29238 -0.17975,-0.45858 0.13149,-0.35899 0.38194,-0.65836 0.59175,-0.97853 0.0226,-0.0156 0.0435,-0.0271 0.0652,-0.0261 z m -2.28701,0.18884 c -0.16651,6e-5 -0.32741,0.073 -0.45859,0.17158 -0.44228,0.45098 -0.46519,1.01285 -0.43086,1.52619 0.0553,0.53475 0.41,1.10365 0.95126,1.27167 0.32666,0.13102 0.1753,0.43735 0.37086,0.63789 0.0738,0.0548 0.17268,0.10324 0.26248,0.0825 0.17987,-0.007 0.21402,-0.20037 0.24883,-0.31292 l -0.042,-0.0945 c -0.13799,-0.13359 -0.15147,0.14509 -0.24815,0.15226 -0.0784,0.0387 -0.17493,-0.0277 -0.22112,-0.0966 -0.0228,-0.40336 -0.4102,-0.60613 -0.73037,-0.79241 -0.55015,-0.50004 -0.50656,-1.16089 -0.34791,-1.78458 0.10385,-0.23524 0.25588,-0.55528 0.55539,-0.61084 0.13789,0.007 0.27896,0.10404 0.37564,0.20044 0.33135,0.44457 -0.0442,0.99543 -0.007,1.46506 0.034,0.16113 0.083,0.22992 0.22088,0.32019 0.076,0.0548 0.17521,0.0412 0.24407,-0.007 0.0898,-0.18207 -0.2097,-0.20281 -0.25111,-0.35496 -0.0134,-0.53418 0.25112,-1.02003 0,-1.53346 -0.0553,-0.10625 -0.20033,-0.19329 -0.32474,-0.21453 -0.0559,-0.0179 -0.11198,-0.0259 -0.16748,-0.0259 z m 11.39895,0.30224 c -0.0341,0.002 -0.0643,0.0437 -0.0873,0.0809 0,0 -0.03,0.0347 -0.0418,0.0459 -0.006,0.15931 -0.0413,0.30897 -0.0713,0.45404 -0.0343,0.15625 -0.0666,0.30825 -0.0666,0.4604 0,0.17051 0.0411,0.33848 0.16794,0.51358 l 0.023,0.0111 c 0.0878,0.0531 0.17995,0.10608 0.27883,0.0877 0.33624,-0.19336 0.69584,-0.35003 1.04125,-0.50199 0,0 0.43987,-0.19582 0.45813,-0.20452 0.0205,-0.0444 0.0323,-0.10153 0.0323,-0.14112 0,-0.023 -0.002,-0.0412 -0.0118,-0.0484 -0.002,-0.002 -0.005,-0.007 -0.0134,-0.004 -0.47958,0.12212 -0.7347,0.27593 -1.00648,0.43745 0,0 -0.31349,0.17909 -0.31769,0.18157 -0.18447,0.0648 -0.34153,0.0348 -0.44041,-0.0895 -0.0207,-0.0737 -0.0295,-0.14979 -0.0295,-0.22362 0,-0.1704 0.0438,-0.34533 0.085,-0.51335 0.0372,-0.14994 0.069,-0.28993 0.0761,-0.42381 -0.007,-0.0849 -0.0325,-0.10553 -0.0761,-0.12226 z m -23.04538,1.12374 -1.50824,1.66095 c 0.0435,0.12671 0.0872,0.2511 0.13339,0.37541 l 1.4762,-1.62595 c -0.0365,-0.13608 -0.069,-0.27395 -0.10135,-0.41041 z m 7.7255,0.29088 c 0.22013,-0.005 0.40112,0.008 0.51426,0.0205 -0.0942,0.28067 -0.40084,0.99221 -1.22009,1.38371 -0.81552,0.38978 -1.51807,0.31599 -1.78526,0.2677 0.11323,-0.29234 0.47459,-1.07369 1.19964,-1.40008 0.44928,-0.20303 0.92457,-0.2632 1.29145,-0.27178 z m -3.84525,0.29474 c 0.20283,0.20923 0.68447,0.79405 0.68447,1.65777 0,0.0323 -8e-5,0.0665 -0.002,0.10135 -0.03,0.66014 -0.2551,1.13943 -0.44517,1.4337 -0.0284,0.0445 -0.056,0.0844 -0.0823,0.11999 -0.009,0.0118 -0.0181,0.0255 -0.0264,0.0364 -0.0322,0.0419 -0.0624,0.0789 -0.0866,0.10726 -0.19805,-0.21172 -0.70742,-0.82898 -0.70742,-1.58482 0,-0.0341 0.002,-0.0689 0.005,-0.10545 0.0506,-0.80414 0.48574,-1.51103 0.66084,-1.76616 z m 3.10738,1.91137 c 0.13229,0.003 0.24204,0.0107 0.31973,0.0182 -0.0878,0.28526 -0.38907,1.02931 -1.20918,1.43257 -0.71505,0.35037 -1.34281,0.32241 -1.66368,0.27315 -0.003,-5.8e-4 -0.007,-0.001 -0.0107,-0.002 -0.0433,-0.007 -0.0816,-0.0139 -0.11248,-0.0205 0.0967,-0.28584 0.41436,-1.08005 1.13941,-1.41666 0.54078,-0.25203 1.14002,-0.29309 1.53688,-0.2852 z m -6.11932,0.023 -1.0642,2.02454 c 0.069,0.11724 0.13864,0.23684 0.20998,0.35178 l 1.04511,-1.98728 c -0.0642,-0.12909 -0.13064,-0.25755 -0.19089,-0.38904 z m 12.04207,1.40484 0.0552,0.0111 c 0.52729,0.64014 2.038,1.99198 2.60402,2.43178 0.56488,0.43989 2.02692,1.29256 2.97785,1.52006 0.0903,0.0759 0.0761,0.13858 0.0418,0.24224 -0.45854,1.59136 -0.67727,2.41058 0.0391,4.04841 0.007,0.0619 0.0759,0.26703 0,0.29247 -0.79238,-0.15932 -1.00172,-0.22826 -1.74571,-0.28133 -0.68604,-0.11963 -1.82881,0.0714 -2.59039,0.065 -0.59673,0.0205 -1.2027,0.0412 -1.82639,0.11726 -0.18695,-0.0967 -0.0413,-0.3066 -0.0279,-0.44449 0.069,-0.21393 0.0763,-0.32496 0.0968,-0.57608 0.0967,-0.10308 0.21639,-0.0484 0.33382,-0.0968 0.40078,-0.0617 0.74141,-0.41668 0.83809,-0.79173 0.1268,-0.39371 -0.0111,-0.83173 -0.19339,-1.20669 -0.0341,-0.11083 -0.18617,-0.19576 -0.1243,-0.30678 0.49296,-0.9231 0.14508,-1.86036 -0.0204,-2.7606 -0.1729,-0.64043 -0.43775,-1.34777 -0.54381,-2.02205 0.0229,-0.069 -0.0666,-0.2306 0.0857,-0.24179 z m -10.82811,0.68379 -0.56903,2.3511 c 0.0918,0.10835 0.18636,0.21414 0.28065,0.32019 l 0.55994,-2.30043 c -0.0925,-0.12211 -0.18445,-0.24645 -0.27156,-0.37086 z m 8.01206,4.8156 c 0.14107,7e-5 0.25951,0.007 0.25951,0.007 0.19805,-0.0142 0.35019,0.034 0.52472,0.0548 0.12211,0.0484 0.0372,0.20273 0.0784,0.29224 0.0578,0.23066 0.0715,0.48185 0.21475,0.71174 0.19986,0.3873 0.56577,0.61715 0.93012,0.75333 0.0802,0.0759 0.0345,0.17768 0.0439,0.27837 -0.0437,0.41513 -0.56433,0.77858 -0.82014,0.85241 -0.25533,0.0737 -1.01515,0.0367 -1.23395,-0.0393 -0.221,-0.0762 -0.75565,-1.11901 -0.6931,-1.66026 0,-0.44927 0.12192,-1.15857 0.30132,-1.21623 0.0899,-0.0275 0.25343,-0.0342 0.39451,-0.0341 z m 2.85968,0.0159 c 0.16314,0.007 0.17741,0.20022 0.22111,0.35246 0.0387,0.20914 0.03,0.34328 0.03,0.53176 -0.069,0.14976 -0.14516,0.37782 -0.29951,0.4745 -0.24643,0.11494 -0.49535,0.0921 -0.73242,0 -0.35726,-0.21163 -0.61711,-0.55049 -0.61243,-1.02921 0,-0.0833 0.005,-0.11748 0.0666,-0.14521 h 0.34314 c 0.30659,0.0112 0.69808,0.11033 0.98353,-0.1843 z m -4.24067,0.0196 c 0.10888,-0.002 0.19784,0.005 0.2427,0.0286 0.11744,0.065 -0.1268,1.22532 -0.1268,1.22532 -0.009,0.23037 0.10395,0.81977 0.20952,1.12396 0.0212,0.0461 0.25814,0.28078 0.1409,0.40041 -0.14087,0.14507 -0.22093,0.0784 -0.36428,0.0925 -0.40977,-0.11313 -0.64919,-0.28821 -0.76423,-0.75105 -0.15215,-0.64482 -0.14565,-1.35421 0,-2.015 l 0.0643,-0.0509 c 0.17978,-0.0199 0.41643,-0.0498 0.59788,-0.0538 z m -2.72765,0.12135 c 0.0694,0.005 0.12957,0.0318 0.16317,0.0966 0.0275,0.11724 -0.11029,0.2668 -0.0895,0.39791 -0.0626,0.11313 -0.0555,0.18665 -0.0834,0.31996 -0.0347,0.0625 -0.20745,-0.0205 -0.26224,-0.0548 -0.21459,-0.11552 -0.20048,-0.0553 -0.26293,-0.25588 -0.034,-0.13388 -0.0319,-0.28998 0.19157,-0.40722 0.0863,-0.049 0.22765,-0.10423 0.34337,-0.0966 z m 1.36258,0.004 c 0.0302,0.002 0.0607,0.006 0.0923,0.0139 l 0.0784,0.0802 c -0.005,0.23037 -0.0619,0.40088 -0.0666,0.61471 -0.0231,0.53724 -0.0692,0.69827 0.0848,1.20941 -0.0573,0.13608 -0.17224,0.0711 -0.29474,0.0736 -0.28545,0.007 -0.48352,-0.14984 -0.61425,-0.48359 -0.13397,-0.42851 -0.17981,-0.80339 -0.0877,-1.24577 0.0298,-0.053 0.0917,-0.0899 0.13363,-0.0711 l 0.39609,-0.13635 c 0.1,-0.0398 0.18749,-0.0601 0.27815,-0.055 z" />
</svg>
